<?xml version="1.0" encoding="utf-8"?>
<!-- Generator: Adobe Illustrator 22.1.0, SVG Export Plug-In . SVG Version: 6.00 Build 0)  -->
<svg version="1.1" id="Layer_1" xmlns="http://www.w3.org/2000/svg" xmlns:xlink="http://www.w3.org/1999/xlink" x="0px" y="0px"
	 viewBox="0 0 145 145" style="enable-background:new 0 0 145 145;" xml:space="preserve">
<metadata><?xpacket begin="﻿" id="W5M0MpCehiHzreSzNTczkc9d"?>
<x:xmpmeta xmlns:x="adobe:ns:meta/" x:xmptk="Adobe XMP Core 5.6-c143 79.161356, 2017/09/07-01:11:22        ">
   <rdf:RDF xmlns:rdf="http://www.w3.org/1999/02/22-rdf-syntax-ns#">
      <rdf:Description rdf:about=""/>
   </rdf:RDF>
</x:xmpmeta>
                                                                                                    
                                                                                                    
                                                                                                    
                                                                                                    
                                                                                                    
                                                                                                    
                                                                                                    
                                                                                                    
                                                                                                    
                                                                                                    
                                                                                                    
                                                                                                    
                                                                                                    
                                                                                                    
                                                                                                    
                                                                                                    
                                                                                                    
                                                                                                    
                                                                                                    
                                                                                                    
                           
<?xpacket end="w"?></metadata>
<style type="text/css">
	.st0{fill:#700E1D;}
	.st1{fill:#9C835B;}
</style>
<g>
	<g>
		<path class="st0" d="M98.1,58.7c-1.1,0-2,0.9-2,2V73c0,13-10.6,23.6-23.6,23.6S48.9,86,48.9,73V60.7c0-1.1-0.9-2-2-2
			c-1.1,0-2,0.9-2,2V73c0,14.5,11.3,26.5,25.6,27.5v10.2H60.3c-1.1,0-2,0.9-2,2s0.9,2,2,2h24.3c1.1,0,2-0.9,2-2s-0.9-2-2-2H74.5
			v-10.2c14.3-1,25.6-13,25.6-27.5V60.7C100.1,59.6,99.2,58.7,98.1,58.7z"/>
		<path class="st0" d="M71.2,90.6h2.6c9,0,16.3-7.3,16.3-16.3V47.1c0-9-7.3-16.3-16.3-16.3h-2.6c-9,0-16.3,7.3-16.3,16.3v27.2
			C54.9,83.3,62.2,90.6,71.2,90.6z M65.8,35.9v5.6c0,1.1,0.9,2,2,2c1.1,0,2-0.9,2-2v-6.7c0.5-0.1,5-0.1,5.5,0v6.7c0,1.1,0.9,2,2,2
			c1.1,0,2-0.9,2-2v-5.6c4.2,2,7,6.3,7,11.2v5.1h-7.1c-1.1,0-2,0.9-2,2c0,1.1,0.9,2,2,2h7.1v5.5h-7.1c-1.1,0-2,0.9-2,2s0.9,2,2,2
			h7.1V71h-7.1c-1.1,0-2,0.9-2,2s0.9,2,2,2h7.1c-0.3,6.5-5.8,11.7-12.4,11.7h-2.6c-6.6,0-12-5.2-12.4-11.7h7.1c1.1,0,2-0.9,2-2
			s-0.9-2-2-2h-7.1v-5.5h7.1c1.1,0,2-0.9,2-2s-0.9-2-2-2h-7.1v-5.5h7.1c1.1,0,2-0.9,2-2s-0.9-2-2-2h-7.1v-5.1
			C58.8,42.1,61.7,37.9,65.8,35.9z"/>
	</g>
	<path class="st1" d="M72.5,142.5c-38.6,0-70-31.4-70-70c0-38.6,31.4-70,70-70c38.6,0,70,31.4,70,70
		C142.5,111.1,111.1,142.5,72.5,142.5z M72.5,6.5c-36.4,0-66,29.6-66,66s29.6,66,66,66s66-29.6,66-66S108.9,6.5,72.5,6.5z"/>
</g>
</svg>
